# xmcd
#
# Track frame offsets:
#	150
#	22085
#	41047
#	59282
#	75742
#	93195
#	113097
#	129340
#	154452
#	176380
#	193472
#	211627
#
# Disc length: 3062 seconds
#
# Revision: 3
# Processed by: cddbd v1.4PL0 Copyright (c) Steve Scherf et al.
# Submitted via: audiograbber 1.81.02
#
DISCID=9e0bf40c
DTITLE=Various Artist - Stir It Up
DYEAR=1993
DGENRE=Reggae
TTITLE0=Marshal, Carla - Proud
TTITLE1=Kamoze, Ina - Here Comes The Hotstepper
TTITLE2=Kinky - Flex-N-Dream
TTITLE3=Ninjaman - Me A Go Ride
TTITLE4=Rebel, Tony - Party Jam
TTITLE5=Brissett, Annette - I Shot The Sheriff
TTITLE6=King, Diana - Stir It Up
TTITLE7=Buckshot LeFonque - Wonders and Signs
TTITLE8=Rayvon - Slave To The Music
TTITLE9=Wolf, Michael - No Happy Endings
TTITLE10=Pinchers - Blessed assurance
TTITLE11=Rebel/Minott/Hammond - Where Is The Love
EXTD=
EXTT0=
EXTT1=
EXTT2=
EXTT3=
EXTT4=
EXTT5=
EXTT6=
EXTT7=
EXTT8=
EXTT9=
EXTT10=
EXTT11=
PLAYORDER=
